<svg xmlns="http://www.w3.org/2000/svg" width="50" height="32" viewBox="0 0 50 32"><defs><linearGradient id="galfc" x1="25" x2="25" y1="32" y2="0" gradientUnits="userSpaceOnUse"><stop offset="0" stop-opacity=".96"/><stop offset=".5" stop-color="#d0d0d0" stop-opacity=".96"/><stop offset="1" stop-color="#9e9e9e" stop-opacity=".96"/></linearGradient><filter id="galfa" width="200%" height="200%" x="-50%" y="-50%"><feGaussianBlur in="SourceGraphic" result="FeGaussianBlur1084Out" stdDeviation="6.5 6.5"/></filter><mask id="galfb"><path fill="#fff" d="M47.819 22.784c-1.917.859-4.234 1.618-6.85 2.237l-.136-22.225C36.988 1.084 31.286 0 24.925 0 18.559 0 12.858 1.084 9.013 2.796v22.223c-2.61-.619-4.919-1.379-6.832-2.235L0 27.567C6.28 30.35 15.119 31.988 24.998 32c9.878-.012 18.725-1.65 25.003-4.433z"/></mask><filter id="galfd" width="200%" height="200%" x="-50%" y="-50%"><feGaussianBlur in="SourceGraphic" result="FeGaussianBlur1091Out" stdDeviation="0 0"/></filter><mask id="galfe"><path fill="#fff" d="M47.819 22.784c-1.917.859-4.234 1.618-6.85 2.237l-.136-22.225C36.988 1.084 31.286 0 24.925 0 18.559 0 12.858 1.084 9.013 2.796v22.223c-2.61-.619-4.919-1.379-6.832-2.235L0 27.567C6.28 30.35 15.119 31.988 24.998 32c9.878-.012 18.725-1.65 25.003-4.433z"/></mask></defs><g><g clip-path="url(#clip-3768)"><path fill="#fff" fill-opacity=".24" d="M-13 45v-58h76v58zm60.819-22.216c-1.917.859-4.234 1.618-6.85 2.237l-.136-22.225C36.988 1.084 31.286 0 24.925 0 18.559 0 12.858 1.084 9.013 2.796v22.223c-2.61-.619-4.919-1.379-6.832-2.235L0 27.567C6.28 30.35 15.119 31.988 24.998 32c9.878-.012 18.725-1.65 25.003-4.433z" filter="url(#galfa)" mask="url(&quot;#galfb&quot;)"/><path fill="#bb9c66" d="M47.819 22.784c-1.917.859-4.234 1.618-6.85 2.237l-.136-22.225C36.988 1.084 31.286 0 24.925 0 18.559 0 12.858 1.084 9.013 2.796v22.223c-2.61-.619-4.919-1.379-6.832-2.235L0 27.567C6.28 30.35 15.119 31.988 24.998 32c9.878-.012 18.725-1.65 25.003-4.433z"/><path fill="url(#galfc)" d="M47.819 22.784c-1.917.859-4.234 1.618-6.85 2.237l-.136-22.225C36.988 1.084 31.286 0 24.925 0 18.559 0 12.858 1.084 9.013 2.796v22.223c-2.61-.619-4.919-1.379-6.832-2.235L0 27.567C6.28 30.35 15.119 31.988 24.998 32c9.878-.012 18.725-1.65 25.003-4.433z"/><path fill="#fff" fill-opacity=".24" d="M-13 45v-58h76v58zm60.819-22.216c-1.917.859-4.234 1.618-6.85 2.237l-.136-22.225C36.988 1.084 31.286 0 24.925 0 18.559 0 12.858 1.084 9.013 2.796v22.223c-2.61-.619-4.919-1.379-6.832-2.235L0 27.567C6.28 30.35 15.119 31.988 24.998 32c9.878-.012 18.725-1.65 25.003-4.433z" filter="url(#galfa)" mask="url(&quot;#galfb&quot;)"/><path fill="#fff1d8" fill-opacity=".44" d="M0 33v-4.432C6.28 31.35 15.115 32.988 24.99 33zM0-1h50v29.565l-2.181-4.78c-1.917.858-4.234 1.617-6.85 2.236l-.136-22.225C36.988 2.084 31.286 1 24.925 1 18.559 1 12.858 2.084 9.013 3.796v22.223c-2.61-.619-4.919-1.379-6.832-2.235L0 28.564zm50 34H25.006c9.875-.013 18.718-1.65 24.994-4.432zM-.001 28.567H0v-.002zM24.998 33h.008-.016.008zM50 28.567L50 28.565v.003h.001z" filter="url(#galfd)" mask="url(&quot;#galfe&quot;)"/></g></g></svg>