<svg xmlns="http://www.w3.org/2000/svg" width="32" height="36" viewBox="0 0 32 36"><defs><linearGradient id="1xtcc" x1="16" x2="16" y1="36" y2="0" gradientUnits="userSpaceOnUse"><stop offset="0" stop-opacity=".96"/><stop offset=".5" stop-color="#d0d0d0" stop-opacity=".96"/><stop offset="1" stop-color="#9e9e9e" stop-opacity=".96"/></linearGradient><filter id="1xtca" width="200%" height="200%" x="-50%" y="-50%"><feGaussianBlur in="SourceGraphic" result="FeGaussianBlur1236Out" stdDeviation="6.5 6.5"/></filter><mask id="1xtcb"><path fill="#fff" d="M31.999 31.546c0 1.604-1.445 2.904-3.23 2.904-1.054 0-2.118-.809-2.118-.809-.252-.192-.535-.727-.844-.727h-2.065c-.31 0-1.282.538-1.534.734 0 0-1.478 1.158-2.83 1.158h-.258c-.268-.037-.692.1-.938.3 0 0-1.109.893-2.212.893-1.147 0-2.286-.974-2.286-.974-.243-.205-.69-.325-.993-.262 0 0-.21.043-.616.043-1.352 0-2.83-1.158-2.83-1.158-.25-.196-.678-.734-.987-.734H6.194c-.31 0-.592.535-.847.727 0 0-1.062.81-2.116.81-1.784 0-3.23-1.301-3.23-2.905 0-1.187 1.467-2.306 1.467-2.306.252-.196.597-.106.597-.44V8.23c0-.335-.345-1.062-.597-1.253 0 0-1.467-1.118-1.467-2.305 0-1.604 1.446-2.905 3.23-2.905.942 0 1.897.628 1.897.628.263.174.759.692 1.066.692h2.064c.31 0 1.058-.518 1.324-.692 0 0 1.316-.86 2.493-.86h.28c.29.042.713-.113.944-.337 0 0 1.207-1.196 2.471-1.196 1.26 0 2.466 1.186 2.466 1.186.228.226.63.38.895.346h.247c1.18 0 2.496.86 2.496.86.266.175.526.693.836.693h3.096c.31 0 .803-.518 1.066-.692 0 0 .955-.628 1.897-.628 1.785 0 3.23 1.3 3.23 2.905 0 1.187-1.467 2.305-1.467 2.305-.252.19-.596.918-.596 1.253v19.543c0 .333.344 1.274.596 1.468 0 0 1.467 1.12 1.467 2.306zM25.807 7.2H6.194v21.6h19.613z"/></mask><filter id="1xtcd" width="200%" height="200%" x="-50%" y="-50%"><feGaussianBlur in="SourceGraphic" result="FeGaussianBlur1243Out" stdDeviation="0 0"/></filter><mask id="1xtce"><path fill="#fff" d="M31.999 31.546c0 1.604-1.445 2.904-3.23 2.904-1.054 0-2.118-.809-2.118-.809-.252-.192-.535-.727-.844-.727h-2.065c-.31 0-1.282.538-1.534.734 0 0-1.478 1.158-2.83 1.158h-.258c-.268-.037-.692.1-.938.3 0 0-1.109.893-2.212.893-1.147 0-2.286-.974-2.286-.974-.243-.205-.69-.325-.993-.262 0 0-.21.043-.616.043-1.352 0-2.83-1.158-2.83-1.158-.25-.196-.678-.734-.987-.734H6.194c-.31 0-.592.535-.847.727 0 0-1.062.81-2.116.81-1.784 0-3.23-1.301-3.23-2.905 0-1.187 1.467-2.306 1.467-2.306.252-.196.597-.106.597-.44V8.23c0-.335-.345-1.062-.597-1.253 0 0-1.467-1.118-1.467-2.305 0-1.604 1.446-2.905 3.23-2.905.942 0 1.897.628 1.897.628.263.174.759.692 1.066.692h2.064c.31 0 1.058-.518 1.324-.692 0 0 1.316-.86 2.493-.86h.28c.29.042.713-.113.944-.337 0 0 1.207-1.196 2.471-1.196 1.26 0 2.466 1.186 2.466 1.186.228.226.63.38.895.346h.247c1.18 0 2.496.86 2.496.86.266.175.526.693.836.693h3.096c.31 0 .803-.518 1.066-.692 0 0 .955-.628 1.897-.628 1.785 0 3.23 1.3 3.23 2.905 0 1.187-1.467 2.305-1.467 2.305-.252.19-.596.918-.596 1.253v19.543c0 .333.344 1.274.596 1.468 0 0 1.467 1.12 1.467 2.306zM25.807 7.2H6.194v21.6h19.613z"/></mask></defs><g><g clip-path="url(#clip-3790)"><path fill="#fff" fill-opacity=".24" d="M-13 49v-62h58v62zm44.999-17.454c0-1.187-1.467-2.306-1.467-2.306-.252-.194-.596-1.135-.596-1.468V8.229c0-.335.344-1.062.596-1.253 0 0 1.467-1.118 1.467-2.305 0-1.604-1.445-2.905-3.23-2.905-.942 0-1.897.628-1.897.628-.263.174-.756.692-1.066.692H22.71c-.31 0-.57-.518-.836-.692 0 0-1.317-.86-2.496-.86h-.247c-.265.033-.667-.12-.895-.346 0 0-1.207-1.187-2.466-1.187C14.506 0 13.3 1.197 13.3 1.197c-.23.224-.655.379-.945.337h-.279c-1.177 0-2.493.86-2.493.86-.266.174-1.015.692-1.324.692H6.194c-.307 0-.803-.518-1.066-.692 0 0-.955-.628-1.897-.628-1.784 0-3.23 1.3-3.23 2.905 0 1.187 1.467 2.305 1.467 2.305.252.19.597.918.597 1.253V28.8c0 .334-.345.244-.597.44 0 0-1.467 1.12-1.467 2.306 0 1.604 1.446 2.904 3.23 2.904 1.054 0 2.116-.809 2.116-.809.255-.192.537-.727.847-.727h2.064c.31 0 .738.538.987.734 0 0 1.478 1.158 2.83 1.158.405 0 .616-.043.616-.043.304-.063.75.057.993.262 0 0 1.139.974 2.286.974 1.103 0 2.212-.893 2.212-.893.246-.2.67-.337.938-.3h.258c1.352 0 2.83-1.158 2.83-1.158.252-.196 1.225-.734 1.534-.734h2.065c.309 0 .592.535.844.727 0 0 1.064.81 2.118.81 1.785 0 3.23-1.301 3.23-2.905zM25.807 28.8H6.194V7.2h19.613z" filter="url(#1xtca)" mask="url(&quot;#1xtcb&quot;)"/><path fill="#bb9c66" d="M31.999 31.546c0 1.604-1.445 2.904-3.23 2.904-1.054 0-2.118-.809-2.118-.809-.252-.192-.535-.727-.844-.727h-2.065c-.31 0-1.282.538-1.534.734 0 0-1.478 1.158-2.83 1.158h-.258c-.268-.037-.692.1-.938.3 0 0-1.109.893-2.212.893-1.147 0-2.286-.974-2.286-.974-.243-.205-.69-.325-.993-.262 0 0-.21.043-.616.043-1.352 0-2.83-1.158-2.83-1.158-.25-.196-.678-.734-.987-.734H6.194c-.31 0-.592.535-.847.727 0 0-1.062.81-2.116.81-1.784 0-3.23-1.301-3.23-2.905 0-1.187 1.467-2.306 1.467-2.306.252-.196.597-.106.597-.44V8.23c0-.335-.345-1.062-.597-1.253 0 0-1.467-1.118-1.467-2.305 0-1.604 1.446-2.905 3.23-2.905.942 0 1.897.628 1.897.628.263.174.759.692 1.066.692h2.064c.31 0 1.058-.518 1.324-.692 0 0 1.316-.86 2.493-.86h.28c.29.042.713-.113.944-.337 0 0 1.207-1.196 2.471-1.196 1.26 0 2.466 1.186 2.466 1.186.228.226.63.38.895.346h.247c1.18 0 2.496.86 2.496.86.266.175.526.693.836.693h3.096c.31 0 .803-.518 1.066-.692 0 0 .955-.628 1.897-.628 1.785 0 3.23 1.3 3.23 2.905 0 1.187-1.467 2.305-1.467 2.305-.252.19-.596.918-.596 1.253v19.543c0 .333.344 1.274.596 1.468 0 0 1.467 1.12 1.467 2.306zM25.807 7.2H6.194v21.6h19.613z"/><path fill="url(#1xtcc)" d="M31.999 31.546c0 1.604-1.445 2.904-3.23 2.904-1.054 0-2.118-.809-2.118-.809-.252-.192-.535-.727-.844-.727h-2.065c-.31 0-1.282.538-1.534.734 0 0-1.478 1.158-2.83 1.158h-.258c-.268-.037-.692.1-.938.3 0 0-1.109.893-2.212.893-1.147 0-2.286-.974-2.286-.974-.243-.205-.69-.325-.993-.262 0 0-.21.043-.616.043-1.352 0-2.83-1.158-2.83-1.158-.25-.196-.678-.734-.987-.734H6.194c-.31 0-.592.535-.847.727 0 0-1.062.81-2.116.81-1.784 0-3.23-1.301-3.23-2.905 0-1.187 1.467-2.306 1.467-2.306.252-.196.597-.106.597-.44V8.23c0-.335-.345-1.062-.597-1.253 0 0-1.467-1.118-1.467-2.305 0-1.604 1.446-2.905 3.23-2.905.942 0 1.897.628 1.897.628.263.174.759.692 1.066.692h2.064c.31 0 1.058-.518 1.324-.692 0 0 1.316-.86 2.493-.86h.28c.29.042.713-.113.944-.337 0 0 1.207-1.196 2.471-1.196 1.26 0 2.466 1.186 2.466 1.186.228.226.63.38.895.346h.247c1.18 0 2.496.86 2.496.86.266.175.526.693.836.693h3.096c.31 0 .803-.518 1.066-.692 0 0 .955-.628 1.897-.628 1.785 0 3.23 1.3 3.23 2.905 0 1.187-1.467 2.305-1.467 2.305-.252.19-.596.918-.596 1.253v19.543c0 .333.344 1.274.596 1.468 0 0 1.467 1.12 1.467 2.306zM25.807 7.2H6.194v21.6h19.613z"/><path fill="#fff" fill-opacity=".24" d="M-13 49v-62h58v62zm44.999-17.454c0-1.187-1.467-2.306-1.467-2.306-.252-.194-.596-1.135-.596-1.468V8.229c0-.335.344-1.062.596-1.253 0 0 1.467-1.118 1.467-2.305 0-1.604-1.445-2.905-3.23-2.905-.942 0-1.897.628-1.897.628-.263.174-.756.692-1.066.692H22.71c-.31 0-.57-.518-.836-.692 0 0-1.317-.86-2.496-.86h-.247c-.265.033-.667-.12-.895-.346 0 0-1.207-1.187-2.466-1.187C14.506 0 13.3 1.197 13.3 1.197c-.23.224-.655.379-.945.337h-.279c-1.177 0-2.493.86-2.493.86-.266.174-1.015.692-1.324.692H6.194c-.307 0-.803-.518-1.066-.692 0 0-.955-.628-1.897-.628-1.784 0-3.23 1.3-3.23 2.905 0 1.187 1.467 2.305 1.467 2.305.252.19.597.918.597 1.253V28.8c0 .334-.345.244-.597.44 0 0-1.467 1.12-1.467 2.306 0 1.604 1.446 2.904 3.23 2.904 1.054 0 2.116-.809 2.116-.809.255-.192.537-.727.847-.727h2.064c.31 0 .738.538.987.734 0 0 1.478 1.158 2.83 1.158.405 0 .616-.043.616-.043.304-.063.75.057.993.262 0 0 1.139.974 2.286.974 1.103 0 2.212-.893 2.212-.893.246-.2.67-.337.938-.3h.258c1.352 0 2.83-1.158 2.83-1.158.252-.196 1.225-.734 1.534-.734h2.065c.309 0 .592.535.844.727 0 0 1.064.81 2.118.81 1.785 0 3.23-1.301 3.23-2.905zM25.807 28.8H6.194V7.2h19.613z" filter="url(#1xtca)" mask="url(&quot;#1xtcb&quot;)"/><path fill="#fff1d8" fill-opacity=".44" d="M0 37V-1h32v38zm31.999-4.454c0-1.187-1.467-2.306-1.467-2.306-.252-.194-.596-1.135-.596-1.468V9.229c0-.335.344-1.062.596-1.253 0 0 1.467-1.118 1.467-2.305 0-1.604-1.445-2.905-3.23-2.905-.942 0-1.897.628-1.897.628-.263.174-.756.692-1.066.692H22.71c-.31 0-.57-.518-.836-.692 0 0-1.317-.86-2.496-.86h-.247c-.265.033-.667-.12-.895-.346 0 0-1.207-1.187-2.466-1.187C14.506 1 13.3 2.197 13.3 2.197c-.23.224-.655.379-.945.337h-.279c-1.177 0-2.493.86-2.493.86-.266.174-1.015.692-1.324.692H6.194c-.307 0-.803-.518-1.066-.692 0 0-.955-.628-1.897-.628-1.784 0-3.23 1.3-3.23 2.905 0 1.187 1.467 2.305 1.467 2.305.252.19.597.918.597 1.253V29.8c0 .334-.345.244-.597.44 0 0-1.467 1.12-1.467 2.306 0 1.604 1.446 2.904 3.23 2.904 1.054 0 2.116-.809 2.116-.809.255-.192.537-.727.847-.727h2.064c.31 0 .738.538.987.734 0 0 1.478 1.158 2.83 1.158.405 0 .616-.043.616-.043.304-.063.75.057.993.262 0 0 1.139.974 2.286.974 1.103 0 2.212-.893 2.212-.893.246-.2.67-.337.938-.3h.258c1.352 0 2.83-1.158 2.83-1.158.252-.196 1.225-.734 1.534-.734h2.065c.309 0 .592.535.844.727 0 0 1.064.81 2.118.81 1.785 0 3.23-1.301 3.23-2.905zM25.807 29.8H6.194V8.2h19.613z" filter="url(#1xtcd)" mask="url(&quot;#1xtce&quot;)"/></g></g></svg>