<svg xmlns="http://www.w3.org/2000/svg" width="36" height="31" viewBox="0 0 36 31"><defs><linearGradient id="qj9qc" x1="18" x2="18" y1="31" y2="0" gradientUnits="userSpaceOnUse"><stop offset="0" stop-opacity=".96"/><stop offset=".5" stop-color="#d0d0d0" stop-opacity=".96"/><stop offset="1" stop-color="#9e9e9e" stop-opacity=".96"/></linearGradient><filter id="qj9qa" width="200%" height="200%" x="-50%" y="-50%"><feGaussianBlur in="SourceGraphic" result="FeGaussianBlur1274Out" stdDeviation="6.5 6.5"/></filter><mask id="qj9qb"><path fill="#fff" d="M36 25.072H33.71v2.878c0 1.683-1.402 3.05-3.132 3.05-1.73 0-3.133-1.367-3.133-3.05v-2.878H8.445v2.878c0 1.686-1.402 3.05-3.132 3.05-1.73 0-3.133-1.364-3.133-3.05v-2.878H0V15.027c0-1.236 1.03-2.238 2.298-2.238h.725L6.02 3.508l.033-.075C6.51 2.383 7.292 1.581 8.196.987 9.107.403 10.167.01 11.34 0h12.972c1.174.009 2.232.403 3.143.987.907.594 1.687 1.396 2.146 2.446l.03.073 3.001 9.283h1.07c1.269 0 2.298 1.002 2.298 2.238zm-8.016-6.442c0 1.396 1.16 2.528 2.595 2.528 1.435 0 2.598-1.132 2.598-2.528 0-1.397-1.163-2.528-2.598-2.528-1.435 0-2.595 1.131-2.595 2.528zM6.749 12.79h22.154l-2.61-8.085c-.123-.248-.423-.594-.81-.836-.41-.275-.896-.413-1.171-.405H11.34c-.274-.008-.759.13-1.171.405-.384.242-.685.588-.807.836zm1.158 5.84c0-1.397-1.161-2.528-2.594-2.528-1.435 0-2.598 1.131-2.598 2.528 0 1.396 1.163 2.528 2.598 2.528 1.433 0 2.594-1.132 2.594-2.528z"/></mask><filter id="qj9qd" width="200%" height="200%" x="-50%" y="-50%"><feGaussianBlur in="SourceGraphic" result="FeGaussianBlur1281Out" stdDeviation="0 0"/></filter><mask id="qj9qe"><path fill="#fff" d="M36 25.072H33.71v2.878c0 1.683-1.402 3.05-3.132 3.05-1.73 0-3.133-1.367-3.133-3.05v-2.878H8.445v2.878c0 1.686-1.402 3.05-3.132 3.05-1.73 0-3.133-1.364-3.133-3.05v-2.878H0V15.027c0-1.236 1.03-2.238 2.298-2.238h.725L6.02 3.508l.033-.075C6.51 2.383 7.292 1.581 8.196.987 9.107.403 10.167.01 11.34 0h12.972c1.174.009 2.232.403 3.143.987.907.594 1.687 1.396 2.146 2.446l.03.073 3.001 9.283h1.07c1.269 0 2.298 1.002 2.298 2.238zm-8.016-6.442c0 1.396 1.16 2.528 2.595 2.528 1.435 0 2.598-1.132 2.598-2.528 0-1.397-1.163-2.528-2.598-2.528-1.435 0-2.595 1.131-2.595 2.528zM6.749 12.79h22.154l-2.61-8.085c-.123-.248-.423-.594-.81-.836-.41-.275-.896-.413-1.171-.405H11.34c-.274-.008-.759.13-1.171.405-.384.242-.685.588-.807.836zm1.158 5.84c0-1.397-1.161-2.528-2.594-2.528-1.435 0-2.598 1.131-2.598 2.528 0 1.396 1.163 2.528 2.598 2.528 1.433 0 2.594-1.132 2.594-2.528z"/></mask></defs><g><g clip-path="url(#clip-3760)"><path fill="#fff" fill-opacity=".24" d="M-13 44v-57h62v57zm49-28.973c0-1.236-1.03-2.238-2.298-2.238h-1.07l-3-9.283-.031-.073c-.459-1.05-1.24-1.852-2.146-2.446-.91-.584-1.97-.978-3.143-.987H11.34c-1.173.009-2.233.403-3.144.987-.904.594-1.685 1.396-2.143 2.446l-.033.075-2.997 9.281h-.725C1.029 12.79 0 13.791 0 15.027v10.045h2.18v2.878c0 1.686 1.402 3.05 3.133 3.05 1.73 0 3.132-1.364 3.132-3.05v-2.878h19v2.878c0 1.683 1.403 3.05 3.134 3.05 1.73 0 3.132-1.367 3.132-3.05v-2.878H36zm-5.421 1.075c1.435 0 2.598 1.131 2.598 2.528 0 1.396-1.163 2.528-2.598 2.528-1.435 0-2.595-1.132-2.595-2.528 0-1.397 1.16-2.528 2.595-2.528zM9.362 4.705c.122-.248.423-.594.807-.836.412-.275.897-.413 1.17-.405h12.973c.275-.008.762.13 1.172.405.386.242.686.588.808.836l2.61 8.084H6.75zm-4.05 16.453c-1.434 0-2.597-1.132-2.597-2.528 0-1.397 1.163-2.528 2.598-2.528 1.433 0 2.594 1.131 2.594 2.528 0 1.396-1.161 2.528-2.594 2.528z" filter="url(#qj9qa)" mask="url(&quot;#qj9qb&quot;)"/><path fill="#bb9c66" d="M36 25.072H33.71v2.878c0 1.683-1.402 3.05-3.132 3.05-1.73 0-3.133-1.367-3.133-3.05v-2.878H8.445v2.878c0 1.686-1.402 3.05-3.132 3.05-1.73 0-3.133-1.364-3.133-3.05v-2.878H0V15.027c0-1.236 1.03-2.238 2.298-2.238h.725L6.02 3.508l.033-.075C6.51 2.383 7.292 1.581 8.196.987 9.107.403 10.167.01 11.34 0h12.972c1.174.009 2.232.403 3.143.987.907.594 1.687 1.396 2.146 2.446l.03.073 3.001 9.283h1.07c1.269 0 2.298 1.002 2.298 2.238zm-8.016-6.442c0 1.396 1.16 2.528 2.595 2.528 1.435 0 2.598-1.132 2.598-2.528 0-1.397-1.163-2.528-2.598-2.528-1.435 0-2.595 1.131-2.595 2.528zM6.749 12.79h22.154l-2.61-8.085c-.123-.248-.423-.594-.81-.836-.41-.275-.896-.413-1.171-.405H11.34c-.274-.008-.759.13-1.171.405-.384.242-.685.588-.807.836zm1.158 5.84c0-1.397-1.161-2.528-2.594-2.528-1.435 0-2.598 1.131-2.598 2.528 0 1.396 1.163 2.528 2.598 2.528 1.433 0 2.594-1.132 2.594-2.528z"/><path fill="url(#qj9qc)" d="M36 25.072H33.71v2.878c0 1.683-1.402 3.05-3.132 3.05-1.73 0-3.133-1.367-3.133-3.05v-2.878H8.445v2.878c0 1.686-1.402 3.05-3.132 3.05-1.73 0-3.133-1.364-3.133-3.05v-2.878H0V15.027c0-1.236 1.03-2.238 2.298-2.238h.725L6.02 3.508l.033-.075C6.51 2.383 7.292 1.581 8.196.987 9.107.403 10.167.01 11.34 0h12.972c1.174.009 2.232.403 3.143.987.907.594 1.687 1.396 2.146 2.446l.03.073 3.001 9.283h1.07c1.269 0 2.298 1.002 2.298 2.238zm-8.016-6.442c0 1.396 1.16 2.528 2.595 2.528 1.435 0 2.598-1.132 2.598-2.528 0-1.397-1.163-2.528-2.598-2.528-1.435 0-2.595 1.131-2.595 2.528zM6.749 12.79h22.154l-2.61-8.085c-.123-.248-.423-.594-.81-.836-.41-.275-.896-.413-1.171-.405H11.34c-.274-.008-.759.13-1.171.405-.384.242-.685.588-.807.836zm1.158 5.84c0-1.397-1.161-2.528-2.594-2.528-1.435 0-2.598 1.131-2.598 2.528 0 1.396 1.163 2.528 2.598 2.528 1.433 0 2.594-1.132 2.594-2.528z"/><path fill="#fff" fill-opacity=".24" d="M-13 44v-57h62v57zm49-28.973c0-1.236-1.03-2.238-2.298-2.238h-1.07l-3-9.283-.031-.073c-.459-1.05-1.24-1.852-2.146-2.446-.91-.584-1.97-.978-3.143-.987H11.34c-1.173.009-2.233.403-3.144.987-.904.594-1.685 1.396-2.143 2.446l-.033.075-2.997 9.281h-.725C1.029 12.79 0 13.791 0 15.027v10.045h2.18v2.878c0 1.686 1.402 3.05 3.133 3.05 1.73 0 3.132-1.364 3.132-3.05v-2.878h19v2.878c0 1.683 1.403 3.05 3.134 3.05 1.73 0 3.132-1.367 3.132-3.05v-2.878H36zm-5.421 1.075c1.435 0 2.598 1.131 2.598 2.528 0 1.396-1.163 2.528-2.598 2.528-1.435 0-2.595-1.132-2.595-2.528 0-1.397 1.16-2.528 2.595-2.528zM9.362 4.705c.122-.248.423-.594.807-.836.412-.275.897-.413 1.17-.405h12.973c.275-.008.762.13 1.172.405.386.242.686.588.808.836l2.61 8.084H6.75zm-4.05 16.453c-1.434 0-2.597-1.132-2.597-2.528 0-1.397 1.163-2.528 2.598-2.528 1.433 0 2.594 1.131 2.594 2.528 0 1.396-1.161 2.528-2.594 2.528z" filter="url(#qj9qa)" mask="url(&quot;#qj9qb&quot;)"/><path fill="#fff1d8" fill-opacity=".44" d="M0 32V-1h36v33h-5.356c1.7-.034 3.067-1.388 3.067-3.05v-2.878H36V16.027c0-1.236-1.03-2.238-2.298-2.238h-1.07l-3-9.283-.031-.073c-.459-1.05-1.24-1.852-2.146-2.446-.91-.584-1.97-.978-3.143-.987H11.34c-1.173.009-2.233.403-3.144.987-.904.594-1.685 1.396-2.143 2.446l-.033.075-2.997 9.281h-.725C1.029 13.79 0 14.791 0 16.027v10.045h2.18v2.878c0 1.665 1.367 3.016 3.067 3.05zm5.313 0h.065-.13.065zm3.132-3.05v-2.878h19v2.878c0 1.662 1.368 3.016 3.068 3.05H5.378c1.7-.034 3.067-1.385 3.067-3.05zM30.579 32h.065-.13.065zm0-14.898c1.435 0 2.598 1.131 2.598 2.528 0 1.396-1.163 2.528-2.598 2.528-1.435 0-2.595-1.132-2.595-2.528 0-1.397 1.16-2.528 2.595-2.528zM9.362 5.705c.122-.248.423-.594.807-.836.412-.275.897-.413 1.17-.405h12.973c.275-.008.762.13 1.172.405.386.242.686.588.808.836l2.61 8.084H6.75zm-4.05 16.453c-1.434 0-2.597-1.132-2.597-2.528 0-1.397 1.163-2.528 2.598-2.528 1.433 0 2.594 1.131 2.594 2.528 0 1.396-1.161 2.528-2.594 2.528z" filter="url(#qj9qd)" mask="url(&quot;#qj9qe&quot;)"/></g></g></svg>