<svg xmlns="http://www.w3.org/2000/svg" width="39" height="69" viewBox="0 0 39 69"><defs><linearGradient id="fxdtc" x1="20" x2="19" y1="69" y2="0" gradientUnits="userSpaceOnUse"><stop offset="0" stop-opacity=".96"/><stop offset=".5" stop-color="#d0d0d0" stop-opacity=".96"/><stop offset="1" stop-color="#9e9e9e" stop-opacity=".96"/></linearGradient><filter id="fxdta" width="200%" height="200%" x="-50%" y="-50%"><feGaussianBlur in="SourceGraphic" result="FeGaussianBlur1046Out" stdDeviation="6.5 6.5"/></filter><mask id="fxdtb"><path fill="#fff" d="M38.998 34.717C38.997 40.674 36.373 45.504 32 49v20H7V49C2.627 45.504.003 40.674.002 34.717.002 28.761 3.627 22.496 8 19V0h23v19c4.373 3.497 7.997 9.762 7.998 15.717zm-4.272 0c0-4.118-1.7-7.828-4.46-10.528-2.762-2.698-6.555-4.36-10.766-4.361-4.211.001-8.005 1.663-10.767 4.36-2.758 2.701-4.458 6.411-4.459 10.53.001 4.118 1.7 7.827 4.46 10.53 2.761 2.697 6.555 4.36 10.766 4.36s8.004-1.663 10.767-4.36c2.758-2.703 4.458-6.412 4.459-10.53zM32 33v3H18V25h3v8z"/></mask><filter id="fxdtd" width="200%" height="200%" x="-50%" y="-50%"><feGaussianBlur in="SourceGraphic" result="FeGaussianBlur1053Out" stdDeviation="0 0"/></filter><mask id="fxdte"><path fill="#fff" d="M38.998 34.717C38.997 40.674 36.373 45.504 32 49v20H7V49C2.627 45.504.003 40.674.002 34.717.002 28.761 3.627 22.496 8 19V0h23v19c4.373 3.497 7.997 9.762 7.998 15.717zm-4.272 0c0-4.118-1.7-7.828-4.46-10.528-2.762-2.698-6.555-4.36-10.766-4.361-4.211.001-8.005 1.663-10.767 4.36-2.758 2.701-4.458 6.411-4.459 10.53.001 4.118 1.7 7.827 4.46 10.53 2.761 2.697 6.555 4.36 10.766 4.36s8.004-1.663 10.767-4.36c2.758-2.703 4.458-6.412 4.459-10.53zM32 33v3H18V25h3v8z"/></mask></defs><g><g clip-path="url(#clip-3748)"><path fill="#fff" fill-opacity=".24" d="M-13 82v-95h65v95zm51.998-47.283C38.997 28.762 35.373 22.497 31 19V0H8v19C3.627 22.496.003 28.761.002 34.717.002 40.674 2.627 45.504 7 49v20h25V49c4.373-3.496 6.997-8.326 6.998-14.283zm-8.731 10.53c-2.763 2.698-6.556 4.36-10.767 4.36-4.211 0-8.005-1.662-10.767-4.36-2.758-2.702-4.458-6.411-4.459-10.53.001-4.118 1.7-7.828 4.46-10.528 2.761-2.698 6.555-4.36 10.766-4.361 4.211.001 8.004 1.663 10.767 4.36 2.758 2.701 4.458 6.411 4.459 10.53 0 4.118-1.7 7.827-4.46 10.53zM21 33v-8h-3v11h14v-3z" filter="url(#fxdta)" mask="url(&quot;#fxdtb&quot;)"/><path fill="#bb9c66" d="M38.998 34.717C38.997 40.674 36.373 45.504 32 49v20H7V49C2.627 45.504.003 40.674.002 34.717.002 28.761 3.627 22.496 8 19V0h23v19c4.373 3.497 7.997 9.762 7.998 15.717zm-4.272 0c0-4.118-1.7-7.828-4.46-10.528-2.762-2.698-6.555-4.36-10.766-4.361-4.211.001-8.005 1.663-10.767 4.36-2.758 2.701-4.458 6.411-4.459 10.53.001 4.118 1.7 7.827 4.46 10.53 2.761 2.697 6.555 4.36 10.766 4.36s8.004-1.663 10.767-4.36c2.758-2.703 4.458-6.412 4.459-10.53zM32 33v3H18V25h3v8z"/><path fill="url(#fxdtc)" d="M38.998 34.717C38.997 40.674 36.373 45.504 32 49v20H7V49C2.627 45.504.003 40.674.002 34.717.002 28.761 3.627 22.496 8 19V0h23v19c4.373 3.497 7.997 9.762 7.998 15.717zm-4.272 0c0-4.118-1.7-7.828-4.46-10.528-2.762-2.698-6.555-4.36-10.766-4.361-4.211.001-8.005 1.663-10.767 4.36-2.758 2.701-4.458 6.411-4.459 10.53.001 4.118 1.7 7.827 4.46 10.53 2.761 2.697 6.555 4.36 10.766 4.36s8.004-1.663 10.767-4.36c2.758-2.703 4.458-6.412 4.459-10.53zM32 33v3H18V25h3v8z"/><path fill="#fff" fill-opacity=".24" d="M-13 82v-95h65v95zm51.998-47.283C38.997 28.762 35.373 22.497 31 19V0H8v19C3.627 22.496.003 28.761.002 34.717.002 40.674 2.627 45.504 7 49v20h25V49c4.373-3.496 6.997-8.326 6.998-14.283zm-8.731 10.53c-2.763 2.698-6.556 4.36-10.767 4.36-4.211 0-8.005-1.662-10.767-4.36-2.758-2.702-4.458-6.411-4.459-10.53.001-4.118 1.7-7.828 4.46-10.528 2.761-2.698 6.555-4.36 10.766-4.361 4.211.001 8.004 1.663 10.767 4.36 2.758 2.701 4.458 6.411 4.459 10.53 0 4.118-1.7 7.827-4.46 10.53zM21 33v-8h-3v11h14v-3z" filter="url(#fxdta)" mask="url(&quot;#fxdtb&quot;)"/><path fill="#fff1d8" fill-opacity=".44" d="M0 70V-1h39v71h-7V50c4.373-3.496 6.997-8.326 6.998-14.283C38.997 29.762 35.373 23.497 31 20V1H8v19C3.627 23.496.003 29.761.002 35.717.002 41.674 2.627 46.504 7 50v20zm7 0h25H7zm23.267-23.753c-2.763 2.698-6.556 4.36-10.767 4.36-4.211 0-8.005-1.662-10.767-4.36-2.758-2.702-4.458-6.411-4.459-10.53.001-4.118 1.7-7.828 4.46-10.528 2.761-2.698 6.555-4.36 10.766-4.361 4.211.001 8.004 1.663 10.767 4.36 2.758 2.701 4.458 6.411 4.459 10.53 0 4.118-1.7 7.827-4.46 10.53zM21 34v-8h-3v11h14v-3z" filter="url(#fxdtd)" mask="url(&quot;#fxdte&quot;)"/></g></g></svg>