<svg xmlns="http://www.w3.org/2000/svg" width="18" height="29" viewBox="0 0 18 29"><defs><linearGradient id="dnghc" x1="9" x2="9" y1="29" y2="0" gradientUnits="userSpaceOnUse"><stop offset="0" stop-opacity=".96"/><stop offset=".5" stop-color="#d0d0d0" stop-opacity=".96"/><stop offset="1" stop-color="#9e9e9e" stop-opacity=".96"/></linearGradient><filter id="dngha" width="200%" height="200%" x="-50%" y="-50%"><feGaussianBlur in="SourceGraphic" result="FeGaussianBlur1350Out" stdDeviation="6.5 6.5"/></filter><mask id="dnghb"><path fill="#fff" d="M10.062 25.527V15.79C14.524 15.244 18 11.313 18 6.56c0-1.321-.296-3.978-1.094-5.488L16.343 0H1.657l-.566 1.071C.296 2.583.001 5.238.001 6.558c0 4.804 3.54 8.768 8.071 9.249v9.72c-3.641.115-6.45.846-6.45 1.73C1.621 28.22 4.955 29 9.067 29c4.11 0 7.443-.78 7.443-1.744 0-.883-2.81-1.614-6.45-1.729z"/></mask><filter id="dnghd" width="200%" height="200%" x="-50%" y="-50%"><feGaussianBlur in="SourceGraphic" result="FeGaussianBlur1357Out" stdDeviation="0 0"/></filter><mask id="dnghe"><path fill="#fff" d="M10.062 25.527V15.79C14.524 15.244 18 11.313 18 6.56c0-1.321-.296-3.978-1.094-5.488L16.343 0H1.657l-.566 1.071C.296 2.583.001 5.238.001 6.558c0 4.804 3.54 8.768 8.071 9.249v9.72c-3.641.115-6.45.846-6.45 1.73C1.621 28.22 4.955 29 9.067 29c4.11 0 7.443-.78 7.443-1.744 0-.883-2.81-1.614-6.45-1.729z"/></mask></defs><g><g clip-path="url(#clip-3794)"><path fill="#fff" fill-opacity=".24" d="M-13 42v-55h44v55zm23.062-16.473V15.79C14.524 15.244 18 11.313 18 6.56c0-1.321-.296-3.978-1.094-5.488L16.343 0H1.657l-.566 1.071C.296 2.583.001 5.238.001 6.558c0 4.804 3.54 8.768 8.071 9.249v9.72c-3.641.115-6.45.846-6.45 1.73C1.621 28.22 4.955 29 9.067 29c4.11 0 7.443-.78 7.443-1.744 0-.883-2.81-1.614-6.45-1.729z" filter="url(#dngha)" mask="url(&quot;#dnghb&quot;)"/><path fill="#bb9c66" d="M10.062 25.527V15.79C14.524 15.244 18 11.313 18 6.56c0-1.321-.296-3.978-1.094-5.488L16.343 0H1.657l-.566 1.071C.296 2.583.001 5.238.001 6.558c0 4.804 3.54 8.768 8.071 9.249v9.72c-3.641.115-6.45.846-6.45 1.73C1.621 28.22 4.955 29 9.067 29c4.11 0 7.443-.78 7.443-1.744 0-.883-2.81-1.614-6.45-1.729z"/><path fill="url(#dnghc)" d="M10.062 25.527V15.79C14.524 15.244 18 11.313 18 6.56c0-1.321-.296-3.978-1.094-5.488L16.343 0H1.657l-.566 1.071C.296 2.583.001 5.238.001 6.558c0 4.804 3.54 8.768 8.071 9.249v9.72c-3.641.115-6.45.846-6.45 1.73C1.621 28.22 4.955 29 9.067 29c4.11 0 7.443-.78 7.443-1.744 0-.883-2.81-1.614-6.45-1.729z"/><path fill="#fff" fill-opacity=".24" d="M-13 42v-55h44v55zm23.062-16.473V15.79C14.524 15.244 18 11.313 18 6.56c0-1.321-.296-3.978-1.094-5.488L16.343 0H1.657l-.566 1.071C.296 2.583.001 5.238.001 6.558c0 4.804 3.54 8.768 8.071 9.249v9.72c-3.641.115-6.45.846-6.45 1.73C1.621 28.22 4.955 29 9.067 29c4.11 0 7.443-.78 7.443-1.744 0-.883-2.81-1.614-6.45-1.729z" filter="url(#dngha)" mask="url(&quot;#dnghb&quot;)"/><path fill="#fff1d8" fill-opacity=".44" d="M0 30V-1h18v31H9.21c4.045-.018 7.3-.791 7.3-1.744 0-.883-2.809-1.614-6.448-1.729V16.79C14.524 16.244 18 12.313 18 7.56c0-1.321-.296-3.978-1.094-5.488L16.343 1H1.657l-.566 1.071C.296 3.583.001 6.238.001 7.558c0 4.804 3.54 8.768 8.071 9.249v9.72c-3.641.115-6.45.846-6.45 1.73 0 .952 3.257 1.725 7.304 1.743zm9.068 0h.142-.284.142z" filter="url(#dnghd)" mask="url(&quot;#dnghe&quot;)"/></g></g></svg>