<svg xmlns="http://www.w3.org/2000/svg" width="43" height="35" viewBox="0 0 43 35"><defs><linearGradient id="2upbc" x1="22" x2="21" y1="35" y2="0" gradientUnits="userSpaceOnUse"><stop offset="0" stop-opacity=".96"/><stop offset=".5" stop-color="#d0d0d0" stop-opacity=".96"/><stop offset="1" stop-color="#9e9e9e" stop-opacity=".96"/></linearGradient><filter id="2upba" width="200%" height="200%" x="-50%" y="-50%"><feGaussianBlur in="SourceGraphic" result="FeGaussianBlur1122Out" stdDeviation="6.5 6.5"/></filter><mask id="2upbb"><path fill="#fff" d="M42.8 31.558C42.187 33.596 40.272 35 38.097 35H4.902C2.726 35 .81 33.596.197 31.558c-.612-2.037.225-4.228 2.059-5.372l16.598-10.383c.063-.04.128-.077.194-.113v-2.934c0-.63.26-1.247.718-1.692a2.497 2.497 0 0 1 1.733-.7c1.577-.003 2.853-1.252 2.86-2.79-.007-1.54-1.283-2.786-2.86-2.79-1.58.004-2.855 1.25-2.858 2.79h-4.903C13.738 3.39 17.211.001 21.5 0c4.288.002 7.759 3.39 7.759 7.573 0 3.35-2.223 6.188-5.307 7.19v.927c.065.036.131.073.194.113l16.598 10.383c1.83 1.144 2.67 3.335 2.056 5.372zm-4.702-1.346L21.499 19.83 4.902 30.212z"/></mask><filter id="2upbd" width="200%" height="200%" x="-50%" y="-50%"><feGaussianBlur in="SourceGraphic" result="FeGaussianBlur1129Out" stdDeviation="0 0"/></filter><mask id="2upbe"><path fill="#fff" d="M42.8 31.558C42.187 33.596 40.272 35 38.097 35H4.902C2.726 35 .81 33.596.197 31.558c-.612-2.037.225-4.228 2.059-5.372l16.598-10.383c.063-.04.128-.077.194-.113v-2.934c0-.63.26-1.247.718-1.692a2.497 2.497 0 0 1 1.733-.7c1.577-.003 2.853-1.252 2.86-2.79-.007-1.54-1.283-2.786-2.86-2.79-1.58.004-2.855 1.25-2.858 2.79h-4.903C13.738 3.39 17.211.001 21.5 0c4.288.002 7.759 3.39 7.759 7.573 0 3.35-2.223 6.188-5.307 7.19v.927c.065.036.131.073.194.113l16.598 10.383c1.83 1.144 2.67 3.335 2.056 5.372zm-4.702-1.346L21.499 19.83 4.902 30.212z"/></mask></defs><g><g clip-path="url(#clip-3785)"><path fill="#fff" fill-opacity=".24" d="M-13 48v-61h69v61zm55.8-16.442c.614-2.037-.227-4.228-2.057-5.372L24.145 15.803c-.063-.04-.129-.077-.194-.113v-.927c3.084-1.002 5.307-3.84 5.307-7.19 0-4.183-3.47-7.571-7.759-7.573-4.288.002-7.76 3.39-7.76 7.573h4.902c.003-1.538 1.279-2.785 2.858-2.79 1.577.005 2.853 1.252 2.86 2.79-.007 1.539-1.283 2.788-2.86 2.79-.645 0-1.278.256-1.733.7a2.374 2.374 0 0 0-.718 1.693v2.934a3.704 3.704 0 0 0-.194.113L2.256 26.186C.422 27.33-.414 29.521.196 31.558.812 33.596 2.727 35 4.903 35h33.196c2.175 0 4.09-1.404 4.701-3.442zM4.901 30.212L21.499 19.83l16.599 10.382z" filter="url(#2upba)" mask="url(&quot;#2upbb&quot;)"/><path fill="#bb9c66" d="M42.8 31.558C42.187 33.596 40.272 35 38.097 35H4.902C2.726 35 .81 33.596.197 31.558c-.612-2.037.225-4.228 2.059-5.372l16.598-10.383c.063-.04.128-.077.194-.113v-2.934c0-.63.26-1.247.718-1.692a2.497 2.497 0 0 1 1.733-.7c1.577-.003 2.853-1.252 2.86-2.79-.007-1.54-1.283-2.786-2.86-2.79-1.58.004-2.855 1.25-2.858 2.79h-4.903C13.738 3.39 17.211.001 21.5 0c4.288.002 7.759 3.39 7.759 7.573 0 3.35-2.223 6.188-5.307 7.19v.927c.065.036.131.073.194.113l16.598 10.383c1.83 1.144 2.67 3.335 2.056 5.372zm-4.702-1.346L21.499 19.83 4.902 30.212z"/><path fill="url(#2upbc)" d="M42.8 31.558C42.187 33.596 40.272 35 38.097 35H4.902C2.726 35 .81 33.596.197 31.558c-.612-2.037.225-4.228 2.059-5.372l16.598-10.383c.063-.04.128-.077.194-.113v-2.934c0-.63.26-1.247.718-1.692a2.497 2.497 0 0 1 1.733-.7c1.577-.003 2.853-1.252 2.86-2.79-.007-1.54-1.283-2.786-2.86-2.79-1.58.004-2.855 1.25-2.858 2.79h-4.903C13.738 3.39 17.211.001 21.5 0c4.288.002 7.759 3.39 7.759 7.573 0 3.35-2.223 6.188-5.307 7.19v.927c.065.036.131.073.194.113l16.598 10.383c1.83 1.144 2.67 3.335 2.056 5.372zm-4.702-1.346L21.499 19.83 4.902 30.212z"/><path fill="#fff" fill-opacity=".24" d="M-13 48v-61h69v61zm55.8-16.442c.614-2.037-.227-4.228-2.057-5.372L24.145 15.803c-.063-.04-.129-.077-.194-.113v-.927c3.084-1.002 5.307-3.84 5.307-7.19 0-4.183-3.47-7.571-7.759-7.573-4.288.002-7.76 3.39-7.76 7.573h4.902c.003-1.538 1.279-2.785 2.858-2.79 1.577.005 2.853 1.252 2.86 2.79-.007 1.539-1.283 2.788-2.86 2.79-.645 0-1.278.256-1.733.7a2.374 2.374 0 0 0-.718 1.693v2.934a3.704 3.704 0 0 0-.194.113L2.256 26.186C.422 27.33-.414 29.521.196 31.558.812 33.596 2.727 35 4.903 35h33.196c2.175 0 4.09-1.404 4.701-3.442zM4.901 30.212L21.499 19.83l16.599 10.382z" filter="url(#2upba)" mask="url(&quot;#2upbb&quot;)"/><path fill="#fff1d8" fill-opacity=".44" d="M0 36v-4.671c.01.41.075.822.197 1.23.614 2.037 2.53 3.44 4.705 3.44h33.196c2.175 0 4.09-1.403 4.701-3.44.615-2.038-.226-4.229-2.056-5.373L24.145 16.803c-.063-.04-.129-.077-.194-.113v-.927c3.084-1.002 5.307-3.84 5.307-7.19 0-4.183-3.47-7.571-7.759-7.573-4.288.002-7.76 3.39-7.76 7.573h4.902c.003-1.538 1.279-2.785 2.858-2.79 1.577.005 2.853 1.252 2.86 2.79-.007 1.539-1.283 2.788-2.86 2.79-.645 0-1.278.256-1.733.7a2.374 2.374 0 0 0-.718 1.693v2.934a3.704 3.704 0 0 0-.194.113L2.256 27.186A4.755 4.755 0 0 0 0 31.098V-1h43v37zm4.902-4.788L21.499 20.83l16.599 10.382zM0 31.329v-.231a4.656 4.656 0 0 0 0 .23z" filter="url(#2upbd)" mask="url(&quot;#2upbe&quot;)"/></g></g></svg>