<svg xmlns="http://www.w3.org/2000/svg" width="37" height="32" viewBox="0 0 37 32"><defs><linearGradient id="mr2ic" x1="19.1" x2="18.82" y1="31.88" y2=".4" gradientUnits="userSpaceOnUse"><stop offset="0" stop-opacity=".96"/><stop offset=".5" stop-color="#d0d0d0" stop-opacity=".96"/><stop offset="1" stop-color="#9e9e9e" stop-opacity=".96"/></linearGradient><filter id="mr2ia" width="200%" height="200%" x="-50%" y="-50%"><feGaussianBlur in="SourceGraphic" result="FeGaussianBlur1312Out" stdDeviation="6.5 6.5"/></filter><mask id="mr2ib"><path fill="#fff" d="M24.815 30.419c.47.418 1.055.68 1.872.682v.777H11.229v-.777c.817-.003 1.4-.264 1.871-.682.468-.418.813-1.012 1.056-1.667.243-.65.381-1.353.459-1.976H23.3c.039.31.091.638.166.971.223 1.014.645 2.047 1.348 2.672zM37.097 1.43v22.482c0 .57-.462 1.033-1.032 1.033H1.85c-.57 0-1.032-.463-1.032-1.033V1.43C.819.86 1.28.398 1.85.398h34.214c.57 0 1.032.462 1.032 1.032zm-2.505 1.473H3.324V22.44h31.268z"/></mask><filter id="mr2id" width="200%" height="200%" x="-50%" y="-50%"><feGaussianBlur in="SourceGraphic" result="FeGaussianBlur1319Out" stdDeviation="0 0"/></filter><mask id="mr2ie"><path fill="#fff" d="M24.815 30.419c.47.418 1.055.68 1.872.682v.777H11.229v-.777c.817-.003 1.4-.264 1.871-.682.468-.418.813-1.012 1.056-1.667.243-.65.381-1.353.459-1.976H23.3c.039.31.091.638.166.971.223 1.014.645 2.047 1.348 2.672zM37.097 1.43v22.482c0 .57-.462 1.033-1.032 1.033H1.85c-.57 0-1.032-.463-1.032-1.033V1.43C.819.86 1.28.398 1.85.398h34.214c.57 0 1.032.462 1.032 1.032zm-2.505 1.473H3.324V22.44h31.268z"/></mask></defs><g><g clip-path="url(#clip-3776)"><path fill="#fff" fill-opacity=".24" d="M-13 45v-58h64v58zm37.815-14.581c-.703-.625-1.125-1.658-1.348-2.672a10.31 10.31 0 0 1-.166-.97h-8.686c-.078.622-.216 1.326-.46 1.975-.242.655-.587 1.249-1.055 1.667-.47.418-1.054.68-1.871.682v.777h15.458v-.777c-.817-.003-1.401-.264-1.872-.682zM36.065.398H1.85C1.281.398.82.86.82 1.43v22.482c0 .57.462 1.033 1.032 1.033h34.214c.57 0 1.032-.463 1.032-1.033V1.43c0-.57-.462-1.032-1.032-1.032zM34.592 22.44H3.324V2.903h31.268z" filter="url(#mr2ia)" mask="url(&quot;#mr2ib&quot;)"/><path fill="#bb9c66" d="M24.815 30.419c.47.418 1.055.68 1.872.682v.777H11.229v-.777c.817-.003 1.4-.264 1.871-.682.468-.418.813-1.012 1.056-1.667.243-.65.381-1.353.459-1.976H23.3c.039.31.091.638.166.971.223 1.014.645 2.047 1.348 2.672zM37.097 1.43v22.482c0 .57-.462 1.033-1.032 1.033H1.85c-.57 0-1.032-.463-1.032-1.033V1.43C.819.86 1.28.398 1.85.398h34.214c.57 0 1.032.462 1.032 1.032zm-2.505 1.473H3.324V22.44h31.268z"/><path fill="url(#mr2ic)" d="M24.815 30.419c.47.418 1.055.68 1.872.682v.777H11.229v-.777c.817-.003 1.4-.264 1.871-.682.468-.418.813-1.012 1.056-1.667.243-.65.381-1.353.459-1.976H23.3c.039.31.091.638.166.971.223 1.014.645 2.047 1.348 2.672zM37.097 1.43v22.482c0 .57-.462 1.033-1.032 1.033H1.85c-.57 0-1.032-.463-1.032-1.033V1.43C.819.86 1.28.398 1.85.398h34.214c.57 0 1.032.462 1.032 1.032zm-2.505 1.473H3.324V22.44h31.268z"/><path fill="#fff" fill-opacity=".24" d="M-13 45v-58h64v58zm37.815-14.581c-.703-.625-1.125-1.658-1.348-2.672a10.31 10.31 0 0 1-.166-.97h-8.686c-.078.622-.216 1.326-.46 1.975-.242.655-.587 1.249-1.055 1.667-.47.418-1.054.68-1.871.682v.777h15.458v-.777c-.817-.003-1.401-.264-1.872-.682zM36.065.398H1.85C1.281.398.82.86.82 1.43v22.482c0 .57.462 1.033 1.032 1.033h34.214c.57 0 1.032-.463 1.032-1.033V1.43c0-.57-.462-1.032-1.032-1.032zM34.592 22.44H3.324V2.903h31.268z" filter="url(#mr2ia)" mask="url(&quot;#mr2ib&quot;)"/><path fill="#fff1d8" fill-opacity=".44" d="M0 33V-1h38v34zm24.815-1.581c-.703-.625-1.125-1.658-1.348-2.672a10.31 10.31 0 0 1-.166-.97h-8.686c-.078.622-.216 1.326-.46 1.975-.242.655-.587 1.249-1.055 1.667-.47.418-1.054.68-1.871.682v.777h15.458v-.777c-.817-.003-1.401-.264-1.872-.682zm11.25-30.021H1.85C1.281 1.398.82 1.86.82 2.43v22.482c0 .57.462 1.033 1.032 1.033h34.214c.57 0 1.032-.463 1.032-1.033V2.43c0-.57-.462-1.032-1.032-1.032zM34.592 23.44H3.324V3.903h31.268z" filter="url(#mr2id)" mask="url(&quot;#mr2ie&quot;)"/></g></g></svg>