<svg xmlns="http://www.w3.org/2000/svg" width="38" height="36" viewBox="0 0 38 36"><defs><linearGradient id="khlsc" x1="18.99" x2="19" y1="36" y2=".01" gradientUnits="userSpaceOnUse"><stop offset="0" stop-opacity=".96"/><stop offset=".5" stop-color="#d0d0d0" stop-opacity=".96"/><stop offset="1" stop-color="#9e9e9e" stop-opacity=".96"/></linearGradient><filter id="khlsa" width="200%" height="200%" x="-50%" y="-50%"><feGaussianBlur in="SourceGraphic" result="FeGaussianBlur1160Out" stdDeviation="6.5 6.5"/></filter><mask id="khlsb"><path fill="#fff" d="M37.992 9.799L18.994 36.002-.004 9.799 6.873.006h24.244zM22.058 8.295l-3.06-4.133-3.061 4.133zm-6.68 2.98l3.62 15.288 3.618-15.289zm9.325-4.368l2.904-3.922h-5.808zM16.195 2.99h-5.808l2.906 3.918zM7.573 4.143L4.656 8.295h5.991zM4.71 11.274L16.07 26.941 12.36 11.274zm17.218 15.654l11.348-15.654h-7.642zM33.333 8.295l-2.913-4.15-3.073 4.15z"/></mask><filter id="khlsd" width="200%" height="200%" x="-50%" y="-50%"><feGaussianBlur in="SourceGraphic" result="FeGaussianBlur1167Out" stdDeviation="0 0"/></filter><mask id="khlse"><path fill="#fff" d="M37.992 9.799L18.994 36.002-.004 9.799 6.873.006h24.244zM22.058 8.295l-3.06-4.133-3.061 4.133zm-6.68 2.98l3.62 15.288 3.618-15.289zm9.325-4.368l2.904-3.922h-5.808zM16.195 2.99h-5.808l2.906 3.918zM7.573 4.143L4.656 8.295h5.991zM4.71 11.274L16.07 26.941 12.36 11.274zm17.218 15.654l11.348-15.654h-7.642zM33.333 8.295l-2.913-4.15-3.073 4.15z"/></mask></defs><g><g clip-path="url(#clip-3754)"><path fill="#fff" fill-opacity=".24" d="M-13 49v-62h64v62zM31.117.006H6.873L-.004 9.8l18.998 26.203L37.992 9.799zm-15.18 8.289l3.06-4.133 3.06 4.133zm6.68 2.98l-3.62 15.288-3.62-15.289zm-.818-8.29h5.808l-2.904 3.922zm-8.506 3.922L10.387 2.99h5.808zm-2.646 1.388h-5.99l2.916-4.152zm1.714 2.98L16.07 26.94 4.71 11.274zm13.274 0h7.642L21.929 26.927zm1.712-2.98l3.073-4.15 2.913 4.15z" filter="url(#khlsa)" mask="url(&quot;#khlsb&quot;)"/><path fill="#bb9c66" d="M37.992 9.799L18.994 36.002-.004 9.799 6.873.006h24.244zM22.058 8.295l-3.06-4.133-3.061 4.133zm-6.68 2.98l3.62 15.288 3.618-15.289zm9.325-4.368l2.904-3.922h-5.808zM16.195 2.99h-5.808l2.906 3.918zM7.573 4.143L4.656 8.295h5.991zM4.71 11.274L16.07 26.941 12.36 11.274zm17.218 15.654l11.348-15.654h-7.642zM33.333 8.295l-2.913-4.15-3.073 4.15z"/><path fill="url(#khlsc)" d="M37.992 9.799L18.994 36.002-.004 9.799 6.873.006h24.244zM22.058 8.295l-3.06-4.133-3.061 4.133zm-6.68 2.98l3.62 15.288 3.618-15.289zm9.325-4.368l2.904-3.922h-5.808zM16.195 2.99h-5.808l2.906 3.918zM7.573 4.143L4.656 8.295h5.991zM4.71 11.274L16.07 26.941 12.36 11.274zm17.218 15.654l11.348-15.654h-7.642zM33.333 8.295l-2.913-4.15-3.073 4.15z"/><path fill="#fff" fill-opacity=".24" d="M-13 49v-62h64v62zM31.117.006H6.873L-.004 9.8l18.998 26.203L37.992 9.799zm-15.18 8.289l3.06-4.133 3.06 4.133zm6.68 2.98l-3.62 15.288-3.62-15.289zm-.818-8.29h5.808l-2.904 3.922zm-8.506 3.922L10.387 2.99h5.808zm-2.646 1.388h-5.99l2.916-4.152zm1.714 2.98L16.07 26.94 4.71 11.274zm13.274 0h7.642L21.929 26.927zm1.712-2.98l3.073-4.15 2.913 4.15z" filter="url(#khlsa)" mask="url(&quot;#khlsb&quot;)"/><path fill="#fff1d8" fill-opacity=".44" d="M0 37V10.805L18.993 37zM0-1h38v38H18.996l18.996-26.201-6.875-9.793H6.873L0 10.793zm-.004 11.799l.004.006v-.012zm18.998 26.203l.002-.002h-.003zM15.937 9.295l3.06-4.133 3.06 4.133zm6.68 2.98l-3.62 15.288-3.62-15.289zm-.818-8.29h5.808l-2.904 3.922zm-8.506 3.922L10.387 3.99h5.808zm-2.646 1.388h-5.99l2.916-4.152zm1.714 2.98L16.07 27.94 4.71 12.274zm13.274 0h7.642L21.929 27.927zm1.712-2.98l3.073-4.15 2.913 4.15z" filter="url(#khlsd)" mask="url(&quot;#khlse&quot;)"/></g></g></svg>